# MagicaVoxel @ ephtracy

# material
mtllib bola de tiro.mtl
usemtl palette

# normals
vn -1 0 0
vn 1 0 0
vn 0 0 1
vn 0 0 -1
vn 0 -1 0
vn 0 1 0

# texcoords
vt 0.990234 0.5
vt 0.994141 0.5

# verts
v -2 7 -0
v -2 7 -1
v -2 8 1
v -2 8 -0
v -2 8 -1
v -2 8 -2
v -2 9 2
v -2 9 1
v -2 9 -1
v -2 9 -2
v -2 9 -3
v -2 10 2
v -2 10 1
v -2 10 -0
v -2 10 -2
v -2 10 -3
v -2 11 1
v -2 11 -0
v -2 11 -1
v -2 11 -2
v -2 12 -0
v -2 12 -1
v -1 7 1
v -1 7 -0
v -1 7 -1
v -1 7 -2
v -1 8 2
v -1 8 1
v -1 8 -0
v -1 8 -1
v -1 8 -2
v -1 8 -3
v -1 9 2
v -1 9 1
v -1 9 -2
v -1 9 -3
v -1 10 2
v -1 10 1
v -1 10 -2
v -1 10 -3
v -1 11 2
v -1 11 1
v -1 11 -0
v -1 11 -1
v -1 11 -2
v -1 11 -3
v -1 12 1
v -1 12 -0
v -1 12 -1
v -1 12 -2
v 0 7 2
v 0 7 1
v 0 7 -2
v 0 7 -3
v 0 8 2
v 0 8 1
v 0 8 -2
v 0 8 -3
v 0 11 2
v 0 11 1
v 0 11 -2
v 0 11 -3
v 0 12 2
v 0 12 1
v 0 12 -2
v 0 12 -3
v 1 7 2
v 1 7 1
v 1 7 -2
v 1 7 -3
v 1 8 2
v 1 8 1
v 1 8 -2
v 1 8 -3
v 1 11 2
v 1 11 1
v 1 11 -2
v 1 11 -3
v 1 12 2
v 1 12 1
v 1 12 -2
v 1 12 -3
v 2 7 1
v 2 7 -0
v 2 7 -1
v 2 7 -2
v 2 8 2
v 2 8 1
v 2 8 -0
v 2 8 -1
v 2 8 -2
v 2 8 -3
v 2 9 2
v 2 9 1
v 2 9 -2
v 2 9 -3
v 2 10 2
v 2 10 1
v 2 10 -2
v 2 10 -3
v 2 11 2
v 2 11 1
v 2 11 -0
v 2 11 -1
v 2 11 -2
v 2 11 -3
v 2 12 1
v 2 12 -0
v 2 12 -1
v 2 12 -2
v 3 7 -0
v 3 7 -1
v 3 8 1
v 3 8 -0
v 3 8 -1
v 3 8 -2
v 3 9 2
v 3 9 1
v 3 9 -0
v 3 9 -2
v 3 9 -3
v 3 10 2
v 3 10 1
v 3 10 -1
v 3 10 -2
v 3 10 -3
v 3 11 1
v 3 11 -0
v 3 11 -1
v 3 11 -2
v 3 12 -0
v 3 12 -1
v -2 9 2
v -2 10 2
v -1 8 2
v -1 9 2
v -1 10 2
v -1 11 2
v 0 7 2
v 0 8 2
v 0 11 2
v 0 12 2
v 1 7 2
v 1 8 2
v 1 9 2
v 1 11 2
v 1 12 2
v 2 8 2
v 2 9 2
v 2 10 2
v 2 11 2
v 3 9 2
v 3 10 2
v -2 8 1
v -2 9 1
v -2 10 1
v -2 11 1
v -1 7 1
v -1 8 1
v -1 9 1
v -1 10 1
v -1 11 1
v -1 12 1
v 0 7 1
v 0 8 1
v 0 11 1
v 0 12 1
v 1 7 1
v 1 8 1
v 1 11 1
v 1 12 1
v 2 7 1
v 2 8 1
v 2 9 1
v 2 10 1
v 2 11 1
v 2 12 1
v 3 8 1
v 3 9 1
v 3 10 1
v 3 11 1
v -2 7 -0
v -2 8 -0
v -2 11 -0
v -2 12 -0
v -1 7 -0
v -1 8 -0
v -1 11 -0
v -1 12 -0
v 2 7 -0
v 2 8 -0
v 2 11 -0
v 2 12 -0
v 3 7 -0
v 3 8 -0
v 3 11 -0
v 3 12 -0
v -2 7 -1
v -2 8 -1
v -2 11 -1
v -2 12 -1
v -1 7 -1
v -1 8 -1
v -1 11 -1
v -1 12 -1
v 2 7 -1
v 2 8 -1
v 2 11 -1
v 2 12 -1
v 3 7 -1
v 3 8 -1
v 3 11 -1
v 3 12 -1
v -2 8 -2
v -2 9 -2
v -2 10 -2
v -2 11 -2
v -1 7 -2
v -1 8 -2
v -1 9 -2
v -1 10 -2
v -1 11 -2
v -1 12 -2
v 0 7 -2
v 0 8 -2
v 0 11 -2
v 0 12 -2
v 1 7 -2
v 1 8 -2
v 1 11 -2
v 1 12 -2
v 2 7 -2
v 2 8 -2
v 2 9 -2
v 2 10 -2
v 2 11 -2
v 2 12 -2
v 3 8 -2
v 3 9 -2
v 3 10 -2
v 3 11 -2
v -2 9 -3
v -2 10 -3
v -1 8 -3
v -1 9 -3
v -1 10 -3
v -1 11 -3
v 0 7 -3
v 0 8 -3
v 0 11 -3
v 0 12 -3
v 1 7 -3
v 1 8 -3
v 1 9 -3
v 1 11 -3
v 1 12 -3
v 2 8 -3
v 2 9 -3
v 2 10 -3
v 2 11 -3
v 3 9 -3
v 3 10 -3
v 0 7 2
v 1 7 2
v -1 7 1
v 0 7 1
v 1 7 1
v 2 7 1
v -2 7 -0
v -1 7 -0
v 2 7 -0
v 3 7 -0
v -2 7 -1
v -1 7 -1
v 2 7 -1
v 3 7 -1
v -1 7 -2
v 0 7 -2
v 1 7 -2
v 2 7 -2
v 0 7 -3
v 1 7 -3
v -1 8 2
v 0 8 2
v 1 8 2
v 2 8 2
v -2 8 1
v -1 8 1
v 0 8 1
v 1 8 1
v 2 8 1
v 3 8 1
v -2 8 -0
v -1 8 -0
v 2 8 -0
v 3 8 -0
v -2 8 -1
v -1 8 -1
v 2 8 -1
v 3 8 -1
v -2 8 -2
v -1 8 -2
v 0 8 -2
v 1 8 -2
v 2 8 -2
v 3 8 -2
v -1 8 -3
v 0 8 -3
v 1 8 -3
v 2 8 -3
v -2 9 2
v -1 9 2
v 2 9 2
v 3 9 2
v -2 9 1
v -1 9 1
v 2 9 1
v 3 9 1
v -2 9 -2
v -1 9 -2
v 2 9 -2
v 3 9 -2
v -2 9 -3
v -1 9 -3
v 2 9 -3
v 3 9 -3
v -2 10 2
v -1 10 2
v 2 10 2
v 3 10 2
v -2 10 1
v -1 10 1
v 2 10 1
v 3 10 1
v -2 10 -2
v -1 10 -2
v 2 10 -2
v 3 10 -2
v -2 10 -3
v -1 10 -3
v 2 10 -3
v 3 10 -3
v -1 11 2
v 0 11 2
v 1 11 2
v 2 11 2
v -2 11 1
v -1 11 1
v 0 11 1
v 1 11 1
v 2 11 1
v 3 11 1
v -2 11 -0
v -1 11 -0
v 2 11 -0
v 3 11 -0
v -2 11 -1
v -1 11 -1
v 2 11 -1
v 3 11 -1
v -2 11 -2
v -1 11 -2
v 0 11 -2
v 1 11 -2
v 2 11 -2
v 3 11 -2
v -1 11 -3
v 0 11 -3
v 1 11 -3
v 2 11 -3
v 0 12 2
v 1 12 2
v -1 12 1
v 0 12 1
v 1 12 1
v 2 12 1
v -2 12 -0
v -1 12 -0
v 0 12 -0
v 1 12 -0
v 2 12 -0
v 3 12 -0
v -2 12 -1
v -1 12 -1
v 0 12 -1
v 1 12 -1
v 2 12 -1
v 3 12 -1
v -1 12 -2
v 0 12 -2
v 1 12 -2
v 2 12 -2
v 0 12 -3
v 1 12 -3

# faces
f 4/2/1 2/2/1 1/2/1
f 5/2/1 2/2/1 4/2/1
f 8/2/1 4/2/1 3/2/1
f 8/2/1 5/2/1 4/2/1
f 9/1/1 6/1/1 5/1/1
f 9/2/1 5/2/1 8/2/1
f 10/1/1 6/1/1 9/1/1
f 12/2/1 8/2/1 7/2/1
f 12/2/1 9/2/1 8/2/1
f 12/2/1 10/2/1 9/2/1
f 13/2/1 10/2/1 12/2/1
f 14/2/1 10/2/1 13/2/1
f 15/1/1 11/1/1 10/1/1
f 15/2/1 10/2/1 14/2/1
f 16/1/1 11/1/1 15/1/1
f 17/1/1 14/1/1 13/1/1
f 18/2/1 15/2/1 14/2/1
f 18/1/1 14/1/1 17/1/1
f 19/2/1 15/2/1 18/2/1
f 20/2/1 15/2/1 19/2/1
f 21/2/1 19/2/1 18/2/1
f 22/2/1 19/2/1 21/2/1
f 28/1/1 24/1/1 23/1/1
f 29/1/1 24/1/1 28/1/1
f 30/1/1 26/1/1 25/1/1
f 31/1/1 26/1/1 30/1/1
f 33/2/1 28/2/1 27/2/1
f 34/2/1 28/2/1 33/2/1
f 35/2/1 32/2/1 31/2/1
f 36/2/1 32/2/1 35/2/1
f 41/2/1 38/2/1 37/2/1
f 42/2/1 38/2/1 41/2/1
f 45/2/1 40/2/1 39/2/1
f 46/2/1 40/2/1 45/2/1
f 47/1/1 43/1/1 42/1/1
f 48/1/1 43/1/1 47/1/1
f 49/2/1 45/2/1 44/2/1
f 50/2/1 45/2/1 49/2/1
f 55/2/1 52/2/1 51/2/1
f 56/2/1 52/2/1 55/2/1
f 57/2/1 54/2/1 53/2/1
f 58/2/1 54/2/1 57/2/1
f 63/2/1 60/2/1 59/2/1
f 64/2/1 60/2/1 63/2/1
f 65/2/1 62/2/1 61/2/1
f 66/2/1 62/2/1 65/2/1
f 67/2/2 68/2/2 71/2/2
f 71/2/2 68/2/2 72/2/2
f 69/2/2 70/2/2 73/2/2
f 73/2/2 70/2/2 74/2/2
f 75/2/2 76/2/2 79/2/2
f 79/2/2 76/2/2 80/2/2
f 77/2/2 78/2/2 81/2/2
f 81/2/2 78/2/2 82/2/2
f 83/2/2 84/2/2 88/2/2
f 88/2/2 84/2/2 89/2/2
f 85/2/2 86/2/2 90/2/2
f 90/2/2 86/2/2 91/2/2
f 87/1/2 88/1/2 93/1/2
f 93/1/2 88/1/2 94/1/2
f 91/1/2 92/1/2 95/1/2
f 95/1/2 92/1/2 96/1/2
f 97/2/2 98/2/2 101/2/2
f 101/2/2 98/2/2 102/2/2
f 99/2/2 100/2/2 105/2/2
f 105/2/2 100/2/2 106/2/2
f 102/1/2 103/1/2 107/1/2
f 107/1/2 103/1/2 108/1/2
f 104/2/2 105/2/2 109/2/2
f 109/2/2 105/2/2 110/2/2
f 111/2/2 112/2/2 114/2/2
f 114/2/2 112/2/2 115/2/2
f 113/1/2 114/1/2 118/1/2
f 114/2/2 115/2/2 119/2/2
f 118/1/2 114/1/2 119/1/2
f 115/1/2 116/1/2 120/1/2
f 117/2/2 118/2/2 122/2/2
f 118/2/2 119/2/2 122/2/2
f 122/2/2 119/2/2 123/2/2
f 119/2/2 115/2/2 124/2/2
f 123/2/2 119/2/2 124/2/2
f 120/1/2 121/1/2 124/1/2
f 115/1/2 120/1/2 124/1/2
f 124/1/2 121/1/2 125/1/2
f 125/1/2 121/1/2 126/1/2
f 123/2/2 124/2/2 127/2/2
f 124/2/2 125/2/2 127/2/2
f 127/2/2 125/2/2 128/2/2
f 128/2/2 125/2/2 129/2/2
f 129/2/2 125/2/2 130/2/2
f 128/1/2 129/1/2 131/1/2
f 131/1/2 129/1/2 132/1/2
f 136/2/3 134/2/3 133/2/3
f 137/2/3 134/2/3 136/2/3
f 140/2/3 136/2/3 135/2/3
f 140/2/3 138/2/3 137/2/3
f 140/2/3 137/2/3 136/2/3
f 141/2/3 138/2/3 140/2/3
f 143/2/3 140/2/3 139/2/3
f 143/2/3 142/2/3 141/2/3
f 143/2/3 141/2/3 140/2/3
f 144/2/3 142/2/3 143/2/3
f 145/2/3 142/2/3 144/2/3
f 146/2/3 142/2/3 145/2/3
f 147/2/3 142/2/3 146/2/3
f 148/1/3 145/1/3 144/1/3
f 149/2/3 146/2/3 145/2/3
f 149/1/3 145/1/3 148/1/3
f 150/2/3 146/2/3 149/2/3
f 151/2/3 146/2/3 150/2/3
f 152/2/3 150/2/3 149/2/3
f 153/2/3 150/2/3 152/2/3
f 159/2/3 155/2/3 154/2/3
f 160/2/3 155/2/3 159/2/3
f 161/1/3 157/1/3 156/1/3
f 162/1/3 157/1/3 161/1/3
f 164/1/3 159/1/3 158/1/3
f 165/1/3 159/1/3 164/1/3
f 166/1/3 163/1/3 162/1/3
f 167/1/3 163/1/3 166/1/3
f 172/2/3 169/2/3 168/2/3
f 173/2/3 169/2/3 172/2/3
f 176/1/3 171/1/3 170/1/3
f 177/1/3 171/1/3 176/1/3
f 178/1/3 174/1/3 173/1/3
f 179/1/3 174/1/3 178/1/3
f 180/2/3 176/2/3 175/2/3
f 181/2/3 176/2/3 180/2/3
f 186/2/3 183/2/3 182/2/3
f 187/2/3 183/2/3 186/2/3
f 188/2/3 185/2/3 184/2/3
f 189/2/3 185/2/3 188/2/3
f 194/2/3 191/2/3 190/2/3
f 195/2/3 191/2/3 194/2/3
f 196/1/3 193/1/3 192/1/3
f 197/1/3 193/1/3 196/1/3
f 198/2/4 199/2/4 202/2/4
f 202/2/4 199/2/4 203/2/4
f 200/2/4 201/2/4 204/2/4
f 204/2/4 201/2/4 205/2/4
f 206/2/4 207/2/4 210/2/4
f 210/2/4 207/2/4 211/2/4
f 208/1/4 209/1/4 212/1/4
f 212/1/4 209/1/4 213/1/4
f 214/1/4 215/1/4 219/1/4
f 219/1/4 215/1/4 220/1/4
f 216/2/4 217/2/4 221/2/4
f 221/2/4 217/2/4 222/2/4
f 218/1/4 219/1/4 224/1/4
f 224/1/4 219/1/4 225/1/4
f 222/2/4 223/2/4 226/2/4
f 226/2/4 223/2/4 227/2/4
f 228/2/4 229/2/4 232/2/4
f 232/2/4 229/2/4 233/2/4
f 230/2/4 231/2/4 236/2/4
f 236/2/4 231/2/4 237/2/4
f 233/1/4 234/1/4 238/1/4
f 238/1/4 234/1/4 239/1/4
f 235/2/4 236/2/4 240/2/4
f 240/2/4 236/2/4 241/2/4
f 242/1/4 243/1/4 245/1/4
f 245/1/4 243/1/4 246/1/4
f 244/2/4 245/2/4 249/2/4
f 246/2/4 247/2/4 249/2/4
f 245/2/4 246/2/4 249/2/4
f 249/2/4 247/2/4 250/2/4
f 248/2/4 249/2/4 252/2/4
f 250/2/4 251/2/4 252/2/4
f 249/2/4 250/2/4 252/2/4
f 252/2/4 251/2/4 253/2/4
f 253/2/4 251/2/4 254/2/4
f 254/2/4 251/2/4 255/2/4
f 255/2/4 251/2/4 256/2/4
f 253/1/4 254/1/4 257/1/4
f 254/2/4 255/2/4 258/2/4
f 257/1/4 254/1/4 258/1/4
f 258/2/4 255/2/4 259/2/4
f 259/2/4 255/2/4 260/2/4
f 258/1/4 259/1/4 261/1/4
f 261/1/4 259/1/4 262/1/4
f 266/2/5 264/2/5 263/2/5
f 267/2/5 264/2/5 266/2/5
f 270/1/5 266/1/5 265/1/5
f 271/2/5 268/2/5 267/2/5
f 271/2/5 267/2/5 266/2/5
f 273/2/5 270/2/5 269/2/5
f 274/1/5 266/1/5 270/1/5
f 274/2/5 270/2/5 273/2/5
f 275/2/5 272/2/5 271/2/5
f 275/2/5 271/2/5 266/2/5
f 276/2/5 272/2/5 275/2/5
f 277/1/5 266/1/5 274/1/5
f 278/2/5 275/2/5 266/2/5
f 278/1/5 266/1/5 277/1/5
f 279/2/5 275/2/5 278/2/5
f 280/2/5 275/2/5 279/2/5
f 281/2/5 279/2/5 278/2/5
f 282/2/5 279/2/5 281/2/5
f 288/2/5 284/2/5 283/2/5
f 289/2/5 284/2/5 288/2/5
f 290/1/5 286/1/5 285/1/5
f 291/1/5 286/1/5 290/1/5
f 293/2/5 288/2/5 287/2/5
f 294/2/5 288/2/5 293/2/5
f 295/1/5 292/1/5 291/1/5
f 296/1/5 292/1/5 295/1/5
f 301/1/5 298/1/5 297/1/5
f 302/1/5 298/1/5 301/1/5
f 305/1/5 300/1/5 299/1/5
f 306/1/5 300/1/5 305/1/5
f 307/2/5 303/2/5 302/2/5
f 308/2/5 303/2/5 307/2/5
f 309/1/5 305/1/5 304/1/5
f 310/1/5 305/1/5 309/1/5
f 315/2/5 312/2/5 311/2/5
f 316/2/5 312/2/5 315/2/5
f 317/2/5 314/2/5 313/2/5
f 318/2/5 314/2/5 317/2/5
f 323/1/5 320/1/5 319/1/5
f 324/1/5 320/1/5 323/1/5
f 325/1/5 322/1/5 321/1/5
f 326/1/5 322/1/5 325/1/5
f 327/2/6 328/2/6 331/2/6
f 331/2/6 328/2/6 332/2/6
f 329/2/6 330/2/6 333/2/6
f 333/2/6 330/2/6 334/2/6
f 335/1/6 336/1/6 339/1/6
f 339/1/6 336/1/6 340/1/6
f 337/1/6 338/1/6 341/1/6
f 341/1/6 338/1/6 342/1/6
f 343/2/6 344/2/6 348/2/6
f 348/2/6 344/2/6 349/2/6
f 345/2/6 346/2/6 350/2/6
f 350/2/6 346/2/6 351/2/6
f 347/1/6 348/1/6 353/1/6
f 353/1/6 348/1/6 354/1/6
f 351/2/6 352/2/6 355/2/6
f 355/2/6 352/2/6 356/2/6
f 357/2/6 358/2/6 361/2/6
f 361/2/6 358/2/6 362/2/6
f 359/2/6 360/2/6 365/2/6
f 365/2/6 360/2/6 366/2/6
f 362/2/6 363/2/6 367/2/6
f 367/2/6 363/2/6 368/2/6
f 364/2/6 365/2/6 369/2/6
f 369/2/6 365/2/6 370/2/6
f 371/2/6 372/2/6 374/2/6
f 374/2/6 372/2/6 375/2/6
f 373/1/6 374/1/6 378/1/6
f 374/2/6 375/2/6 379/2/6
f 378/1/6 374/1/6 379/1/6
f 375/1/6 376/1/6 380/1/6
f 379/2/6 375/2/6 380/2/6
f 380/1/6 376/1/6 381/1/6
f 378/2/6 379/2/6 383/2/6
f 377/2/6 378/2/6 383/2/6
f 383/2/6 379/2/6 384/2/6
f 379/1/6 380/1/6 385/1/6
f 384/2/6 379/2/6 385/2/6
f 380/2/6 381/2/6 386/2/6
f 385/1/6 380/1/6 386/1/6
f 381/1/6 382/1/6 387/1/6
f 386/2/6 381/2/6 387/2/6
f 387/1/6 382/1/6 388/1/6
f 385/2/6 386/2/6 389/2/6
f 384/2/6 385/2/6 389/2/6
f 386/2/6 387/2/6 389/2/6
f 389/2/6 387/2/6 390/2/6
f 390/2/6 387/2/6 391/2/6
f 391/2/6 387/2/6 392/2/6
f 390/2/6 391/2/6 393/2/6
f 393/2/6 391/2/6 394/2/6
