# MagicaVoxel @ ephtracy

# material
mtllib bola de tiroanim5.mtl
usemtl palette

# normals
vn -1 0 0
vn 1 0 0
vn 0 0 1
vn 0 0 -1
vn 0 -1 0
vn 0 1 0

# texcoords
vt 0.0175781 0.5
vt 0.0449219 0.5
vt 0.0644531 0.5
vt 0.0683594 0.5

# verts
v -3 8 1
v -3 8 -1
v -3 9 1
v -3 9 -1
v -3 10 -0
v -3 10 -1
v -3 11 -0
v -3 11 -1
v -2 7 2
v -2 7 1
v -2 8 2
v -2 8 1
v -2 8 -2
v -2 8 -3
v -2 9 -2
v -2 9 -3
v -2 10 4
v -2 10 3
v -2 11 4
v -2 11 3
v -1 10 5
v -1 10 4
v -1 10 -3
v -1 10 -4
v -1 11 5
v -1 11 4
v -1 11 -3
v -1 11 -4
v 0 4 -0
v 0 4 -1
v 0 5 -0
v 0 5 -1
v 0 8 -3
v 0 8 -4
v 0 9 -3
v 0 9 -4
v 1 6 -4
v 1 6 -5
v 1 7 -4
v 1 7 -5
v 1 9 -3
v 1 9 -4
v 1 10 -3
v 1 10 -4
v 2 6 3
v 2 6 2
v 2 7 3
v 2 7 2
v 3 8 -2
v 3 8 -3
v 3 9 -2
v 3 9 -3
v 4 10 1
v 4 10 -0
v 4 11 1
v 4 11 -0
v -2 8 1
v -2 8 -1
v -2 9 1
v -2 9 -1
v -2 10 -0
v -2 10 -1
v -2 11 -0
v -2 11 -1
v -1 7 2
v -1 7 1
v -1 8 2
v -1 8 1
v -1 8 -2
v -1 8 -3
v -1 9 -2
v -1 9 -3
v -1 10 4
v -1 10 3
v -1 11 4
v -1 11 3
v 0 10 5
v 0 10 4
v 0 10 -3
v 0 10 -4
v 0 11 5
v 0 11 4
v 0 11 -3
v 0 11 -4
v 1 4 -0
v 1 4 -1
v 1 5 -0
v 1 5 -1
v 1 8 -3
v 1 8 -4
v 1 9 -3
v 1 9 -4
v 2 6 -4
v 2 6 -5
v 2 7 -4
v 2 7 -5
v 2 9 -3
v 2 9 -4
v 2 10 -3
v 2 10 -4
v 3 6 3
v 3 6 2
v 3 7 3
v 3 7 2
v 4 8 -2
v 4 8 -3
v 4 9 -2
v 4 9 -3
v 5 10 1
v 5 10 -0
v 5 11 1
v 5 11 -0
v -1 10 5
v -1 11 5
v 0 10 5
v 0 11 5
v -2 10 4
v -2 11 4
v -1 10 4
v -1 11 4
v 2 6 3
v 2 7 3
v 3 6 3
v 3 7 3
v -2 7 2
v -2 8 2
v -1 7 2
v -1 8 2
v -3 8 1
v -3 9 1
v -2 8 1
v -2 9 1
v 4 10 1
v 4 11 1
v 5 10 1
v 5 11 1
v -3 10 -0
v -3 11 -0
v -2 10 -0
v -2 11 -0
v 0 4 -0
v 0 5 -0
v 1 4 -0
v 1 5 -0
v -2 8 -2
v -2 9 -2
v -1 8 -2
v -1 9 -2
v 3 8 -2
v 3 9 -2
v 4 8 -2
v 4 9 -2
v -1 10 -3
v -1 11 -3
v 0 8 -3
v 0 9 -3
v 0 10 -3
v 0 11 -3
v 1 8 -3
v 1 9 -3
v 1 10 -3
v 2 9 -3
v 2 10 -3
v 1 6 -4
v 1 7 -4
v 2 6 -4
v 2 7 -4
v -1 10 4
v -1 11 4
v 0 10 4
v 0 11 4
v -2 10 3
v -2 11 3
v -1 10 3
v -1 11 3
v 2 6 2
v 2 7 2
v 3 6 2
v 3 7 2
v -2 7 1
v -2 8 1
v -1 7 1
v -1 8 1
v 4 10 -0
v 4 11 -0
v 5 10 -0
v 5 11 -0
v -3 8 -1
v -3 9 -1
v -3 10 -1
v -3 11 -1
v -2 8 -1
v -2 9 -1
v -2 10 -1
v -2 11 -1
v 0 4 -1
v 0 5 -1
v 1 4 -1
v 1 5 -1
v -2 8 -3
v -2 9 -3
v -1 8 -3
v -1 9 -3
v 3 8 -3
v 3 9 -3
v 4 8 -3
v 4 9 -3
v -1 10 -4
v -1 11 -4
v 0 8 -4
v 0 9 -4
v 0 10 -4
v 0 11 -4
v 1 8 -4
v 1 9 -4
v 1 10 -4
v 2 9 -4
v 2 10 -4
v 1 6 -5
v 1 7 -5
v 2 6 -5
v 2 7 -5
v 0 4 -0
v 1 4 -0
v 0 4 -1
v 1 4 -1
v 2 6 3
v 3 6 3
v 2 6 2
v 3 6 2
v 1 6 -4
v 2 6 -4
v 1 6 -5
v 2 6 -5
v -2 7 2
v -1 7 2
v -2 7 1
v -1 7 1
v -3 8 1
v -2 8 1
v -3 8 -1
v -2 8 -1
v -2 8 -2
v -1 8 -2
v 3 8 -2
v 4 8 -2
v -2 8 -3
v -1 8 -3
v 0 8 -3
v 1 8 -3
v 3 8 -3
v 4 8 -3
v 0 8 -4
v 1 8 -4
v 1 9 -3
v 2 9 -3
v 1 9 -4
v 2 9 -4
v -1 10 5
v 0 10 5
v -2 10 4
v -1 10 4
v 0 10 4
v -2 10 3
v -1 10 3
v 4 10 1
v 5 10 1
v -3 10 -0
v -2 10 -0
v 4 10 -0
v 5 10 -0
v -3 10 -1
v -2 10 -1
v -1 10 -3
v 0 10 -3
v -1 10 -4
v 0 10 -4
v 0 5 -0
v 1 5 -0
v 0 5 -1
v 1 5 -1
v 2 7 3
v 3 7 3
v 2 7 2
v 3 7 2
v 1 7 -4
v 2 7 -4
v 1 7 -5
v 2 7 -5
v -2 8 2
v -1 8 2
v -2 8 1
v -1 8 1
v -3 9 1
v -2 9 1
v -3 9 -1
v -2 9 -1
v -2 9 -2
v -1 9 -2
v 3 9 -2
v 4 9 -2
v -2 9 -3
v -1 9 -3
v 0 9 -3
v 1 9 -3
v 3 9 -3
v 4 9 -3
v 0 9 -4
v 1 9 -4
v 1 10 -3
v 2 10 -3
v 1 10 -4
v 2 10 -4
v -1 11 5
v 0 11 5
v -2 11 4
v -1 11 4
v 0 11 4
v -2 11 3
v -1 11 3
v 4 11 1
v 5 11 1
v -3 11 -0
v -2 11 -0
v 4 11 -0
v 5 11 -0
v -3 11 -1
v -2 11 -1
v -1 11 -3
v 0 11 -3
v -1 11 -4
v 0 11 -4

# faces
f 3/1/1 2/1/1 1/1/1
f 4/1/1 2/1/1 3/1/1
f 7/1/1 6/1/1 5/1/1
f 8/1/1 6/1/1 7/1/1
f 11/1/1 10/1/1 9/1/1
f 12/1/1 10/1/1 11/1/1
f 15/3/1 14/3/1 13/3/1
f 16/3/1 14/3/1 15/3/1
f 19/4/1 18/4/1 17/4/1
f 20/4/1 18/4/1 19/4/1
f 25/4/1 22/4/1 21/4/1
f 26/4/1 22/4/1 25/4/1
f 27/1/1 24/1/1 23/1/1
f 28/1/1 24/1/1 27/1/1
f 31/4/1 30/4/1 29/4/1
f 32/4/1 30/4/1 31/4/1
f 35/3/1 34/3/1 33/3/1
f 36/3/1 34/3/1 35/3/1
f 39/2/1 38/2/1 37/2/1
f 40/2/1 38/2/1 39/2/1
f 43/1/1 42/1/1 41/1/1
f 44/1/1 42/1/1 43/1/1
f 47/2/1 46/2/1 45/2/1
f 48/2/1 46/2/1 47/2/1
f 51/1/1 50/1/1 49/1/1
f 52/1/1 50/1/1 51/1/1
f 55/4/1 54/4/1 53/4/1
f 56/4/1 54/4/1 55/4/1
f 57/1/2 58/1/2 59/1/2
f 59/1/2 58/1/2 60/1/2
f 61/1/2 62/1/2 63/1/2
f 63/1/2 62/1/2 64/1/2
f 65/1/2 66/1/2 67/1/2
f 67/1/2 66/1/2 68/1/2
f 69/3/2 70/3/2 71/3/2
f 71/3/2 70/3/2 72/3/2
f 73/4/2 74/4/2 75/4/2
f 75/4/2 74/4/2 76/4/2
f 77/4/2 78/4/2 81/4/2
f 81/4/2 78/4/2 82/4/2
f 79/1/2 80/1/2 83/1/2
f 83/1/2 80/1/2 84/1/2
f 85/4/2 86/4/2 87/4/2
f 87/4/2 86/4/2 88/4/2
f 89/3/2 90/3/2 91/3/2
f 91/3/2 90/3/2 92/3/2
f 93/2/2 94/2/2 95/2/2
f 95/2/2 94/2/2 96/2/2
f 97/1/2 98/1/2 99/1/2
f 99/1/2 98/1/2 100/1/2
f 101/2/2 102/2/2 103/2/2
f 103/2/2 102/2/2 104/2/2
f 105/1/2 106/1/2 107/1/2
f 107/1/2 106/1/2 108/1/2
f 109/4/2 110/4/2 111/4/2
f 111/4/2 110/4/2 112/4/2
f 115/4/3 114/4/3 113/4/3
f 116/4/3 114/4/3 115/4/3
f 119/4/3 118/4/3 117/4/3
f 120/4/3 118/4/3 119/4/3
f 123/2/3 122/2/3 121/2/3
f 124/2/3 122/2/3 123/2/3
f 127/1/3 126/1/3 125/1/3
f 128/1/3 126/1/3 127/1/3
f 131/1/3 130/1/3 129/1/3
f 132/1/3 130/1/3 131/1/3
f 135/4/3 134/4/3 133/4/3
f 136/4/3 134/4/3 135/4/3
f 139/1/3 138/1/3 137/1/3
f 140/1/3 138/1/3 139/1/3
f 143/4/3 142/4/3 141/4/3
f 144/4/3 142/4/3 143/4/3
f 147/3/3 146/3/3 145/3/3
f 148/3/3 146/3/3 147/3/3
f 151/1/3 150/1/3 149/1/3
f 152/1/3 150/1/3 151/1/3
f 157/1/3 154/1/3 153/1/3
f 158/1/3 154/1/3 157/1/3
f 159/3/3 156/3/3 155/3/3
f 160/3/3 156/3/3 159/3/3
f 162/1/3 161/1/3 160/1/3
f 163/1/3 161/1/3 162/1/3
f 166/2/3 165/2/3 164/2/3
f 167/2/3 165/2/3 166/2/3
f 168/4/4 169/4/4 170/4/4
f 170/4/4 169/4/4 171/4/4
f 172/4/4 173/4/4 174/4/4
f 174/4/4 173/4/4 175/4/4
f 176/2/4 177/2/4 178/2/4
f 178/2/4 177/2/4 179/2/4
f 180/1/4 181/1/4 182/1/4
f 182/1/4 181/1/4 183/1/4
f 184/4/4 185/4/4 186/4/4
f 186/4/4 185/4/4 187/4/4
f 188/1/4 189/1/4 192/1/4
f 192/1/4 189/1/4 193/1/4
f 190/1/4 191/1/4 194/1/4
f 194/1/4 191/1/4 195/1/4
f 196/4/4 197/4/4 198/4/4
f 198/4/4 197/4/4 199/4/4
f 200/3/4 201/3/4 202/3/4
f 202/3/4 201/3/4 203/3/4
f 204/1/4 205/1/4 206/1/4
f 206/1/4 205/1/4 207/1/4
f 208/1/4 209/1/4 212/1/4
f 212/1/4 209/1/4 213/1/4
f 210/3/4 211/3/4 214/3/4
f 214/3/4 211/3/4 215/3/4
f 215/1/4 216/1/4 217/1/4
f 217/1/4 216/1/4 218/1/4
f 219/2/4 220/2/4 221/2/4
f 221/2/4 220/2/4 222/2/4
f 225/4/5 224/4/5 223/4/5
f 226/4/5 224/4/5 225/4/5
f 229/2/5 228/2/5 227/2/5
f 230/2/5 228/2/5 229/2/5
f 233/2/5 232/2/5 231/2/5
f 234/2/5 232/2/5 233/2/5
f 237/1/5 236/1/5 235/1/5
f 238/1/5 236/1/5 237/1/5
f 241/1/5 240/1/5 239/1/5
f 242/1/5 240/1/5 241/1/5
f 247/3/5 244/3/5 243/3/5
f 248/3/5 244/3/5 247/3/5
f 251/1/5 246/1/5 245/1/5
f 252/1/5 246/1/5 251/1/5
f 253/3/5 250/3/5 249/3/5
f 254/3/5 250/3/5 253/3/5
f 257/1/5 256/1/5 255/1/5
f 258/1/5 256/1/5 257/1/5
f 262/4/5 260/4/5 259/4/5
f 263/4/5 260/4/5 262/4/5
f 264/4/5 262/4/5 261/4/5
f 265/4/5 262/4/5 264/4/5
f 270/4/5 267/4/5 266/4/5
f 271/4/5 267/4/5 270/4/5
f 272/1/5 269/1/5 268/1/5
f 273/1/5 269/1/5 272/1/5
f 276/1/5 275/1/5 274/1/5
f 277/1/5 275/1/5 276/1/5
f 278/4/6 279/4/6 280/4/6
f 280/4/6 279/4/6 281/4/6
f 282/2/6 283/2/6 284/2/6
f 284/2/6 283/2/6 285/2/6
f 286/2/6 287/2/6 288/2/6
f 288/2/6 287/2/6 289/2/6
f 290/1/6 291/1/6 292/1/6
f 292/1/6 291/1/6 293/1/6
f 294/1/6 295/1/6 296/1/6
f 296/1/6 295/1/6 297/1/6
f 298/3/6 299/3/6 302/3/6
f 302/3/6 299/3/6 303/3/6
f 300/1/6 301/1/6 306/1/6
f 306/1/6 301/1/6 307/1/6
f 304/3/6 305/3/6 308/3/6
f 308/3/6 305/3/6 309/3/6
f 310/1/6 311/1/6 312/1/6
f 312/1/6 311/1/6 313/1/6
f 314/4/6 315/4/6 317/4/6
f 317/4/6 315/4/6 318/4/6
f 316/4/6 317/4/6 319/4/6
f 319/4/6 317/4/6 320/4/6
f 321/4/6 322/4/6 325/4/6
f 325/4/6 322/4/6 326/4/6
f 323/1/6 324/1/6 327/1/6
f 327/1/6 324/1/6 328/1/6
f 329/1/6 330/1/6 331/1/6
f 331/1/6 330/1/6 332/1/6
