# MagicaVoxel @ ephtracy

# material
mtllib bola de tiroanim4.mtl
usemtl palette

# normals
vn -1 0 0
vn 1 0 0
vn 0 0 1
vn 0 0 -1
vn 0 -1 0
vn 0 1 0

# texcoords
vt 0.0175781 0.5
vt 0.0410156 0.5
vt 0.0449219 0.5
vt 0.0644531 0.5
vt 0.0683594 0.5

# verts
v -3 8 1
v -3 8 -1
v -3 9 1
v -3 9 -1
v -3 10 -0
v -3 10 -1
v -3 11 1
v -3 11 -0
v -3 11 -1
v -3 12 1
v -3 12 -0
v -2 7 2
v -2 7 1
v -2 8 2
v -2 8 1
v -2 8 -2
v -2 8 -3
v -2 9 3
v -2 9 2
v -2 9 -2
v -2 9 -3
v -2 10 4
v -2 10 3
v -2 10 2
v -2 11 4
v -2 11 3
v -2 11 2
v -2 11 1
v -2 11 -1
v -2 11 -2
v -2 12 2
v -2 12 1
v -2 12 -1
v -2 12 -2
v -1 5 1
v -1 5 -0
v -1 5 -1
v -1 5 -2
v -1 6 1
v -1 6 -0
v -1 6 -1
v -1 6 -2
v -1 8 3
v -1 8 2
v -1 9 3
v -1 9 2
v -1 10 5
v -1 10 4
v -1 10 -3
v -1 10 -4
v -1 11 5
v -1 11 4
v -1 11 -3
v -1 11 -4
v 0 4 -0
v 0 4 -1
v 0 5 -0
v 0 5 -1
v 0 8 -3
v 0 8 -4
v 0 9 3
v 0 9 2
v 0 9 -3
v 0 9 -4
v 0 10 3
v 0 10 2
v 0 10 -2
v 0 10 -3
v 0 11 -2
v 0 11 -3
v 0 12 -1
v 0 12 -2
v 0 13 -1
v 0 13 -2
v 1 6 -4
v 1 6 -5
v 1 7 -3
v 1 7 -4
v 1 7 -5
v 1 8 1
v 1 8 -0
v 1 8 -3
v 1 8 -4
v 1 9 1
v 1 9 -0
v 1 9 -3
v 1 9 -4
v 1 10 -3
v 1 10 -4
v 1 11 -1
v 1 11 -2
v 1 12 -1
v 1 12 -2
v 2 6 3
v 2 6 2
v 2 6 -3
v 2 6 -4
v 2 7 3
v 2 7 2
v 2 7 1
v 2 7 -1
v 2 7 -2
v 2 7 -3
v 2 7 -4
v 2 8 2
v 2 8 1
v 2 8 -1
v 2 8 -2
v 2 9 3
v 2 9 2
v 2 10 3
v 2 10 2
v 2 10 -2
v 2 10 -3
v 2 11 -2
v 2 11 -3
v 3 8 -2
v 3 8 -3
v 3 9 2
v 3 9 1
v 3 9 -2
v 3 9 -3
v 3 10 2
v 3 10 1
v 4 10 1
v 4 10 -0
v 4 11 1
v 4 11 -0
v 4 11 -1
v 4 12 -0
v 4 12 -1
v -2 8 1
v -2 8 -1
v -2 9 1
v -2 9 -1
v -2 10 -0
v -2 10 -1
v -2 11 1
v -2 11 -0
v -2 11 -1
v -2 12 1
v -2 12 -0
v -1 7 2
v -1 7 1
v -1 8 2
v -1 8 1
v -1 8 -2
v -1 8 -3
v -1 9 3
v -1 9 2
v -1 9 -2
v -1 9 -3
v -1 10 4
v -1 10 3
v -1 10 2
v -1 11 4
v -1 11 3
v -1 11 2
v -1 11 1
v -1 11 -1
v -1 11 -2
v -1 12 2
v -1 12 1
v -1 12 -1
v -1 12 -2
v 0 5 1
v 0 5 -0
v 0 5 -1
v 0 5 -2
v 0 6 1
v 0 6 -0
v 0 6 -1
v 0 6 -2
v 0 8 3
v 0 8 2
v 0 9 3
v 0 9 2
v 0 10 5
v 0 10 4
v 0 10 -3
v 0 10 -4
v 0 11 5
v 0 11 4
v 0 11 -3
v 0 11 -4
v 1 4 -0
v 1 4 -1
v 1 5 -0
v 1 5 -1
v 1 8 -3
v 1 8 -4
v 1 9 3
v 1 9 2
v 1 9 -3
v 1 9 -4
v 1 10 3
v 1 10 2
v 1 10 -2
v 1 10 -3
v 1 11 -2
v 1 11 -3
v 1 12 -1
v 1 12 -2
v 1 13 -1
v 1 13 -2
v 2 6 -4
v 2 6 -5
v 2 7 -3
v 2 7 -4
v 2 7 -5
v 2 8 1
v 2 8 -0
v 2 8 -3
v 2 8 -4
v 2 9 1
v 2 9 -0
v 2 9 -3
v 2 9 -4
v 2 10 -3
v 2 10 -4
v 2 11 -1
v 2 11 -2
v 2 12 -1
v 2 12 -2
v 3 6 3
v 3 6 2
v 3 6 -3
v 3 6 -4
v 3 7 3
v 3 7 2
v 3 7 1
v 3 7 -1
v 3 7 -2
v 3 7 -3
v 3 7 -4
v 3 8 2
v 3 8 1
v 3 8 -1
v 3 8 -2
v 3 9 3
v 3 9 2
v 3 10 3
v 3 10 2
v 3 10 -2
v 3 10 -3
v 3 11 -2
v 3 11 -3
v 4 8 -2
v 4 8 -3
v 4 9 2
v 4 9 1
v 4 9 -2
v 4 9 -3
v 4 10 2
v 4 10 1
v 5 10 1
v 5 10 -0
v 5 11 1
v 5 11 -0
v 5 11 -1
v 5 12 -0
v 5 12 -1
v -1 10 5
v -1 11 5
v 0 10 5
v 0 11 5
v -2 10 4
v -2 11 4
v -1 10 4
v -1 11 4
v -2 9 3
v -2 10 3
v -1 8 3
v -1 9 3
v -1 10 3
v 0 8 3
v 0 9 3
v 0 10 3
v 1 9 3
v 1 10 3
v 2 6 3
v 2 7 3
v 2 9 3
v 2 10 3
v 3 6 3
v 3 7 3
v 3 9 3
v 3 10 3
v -2 7 2
v -2 8 2
v -2 11 2
v -2 12 2
v -1 7 2
v -1 8 2
v -1 11 2
v -1 12 2
v 2 7 2
v 2 8 2
v 3 7 2
v 3 8 2
v 3 9 2
v 3 10 2
v 4 9 2
v 4 10 2
v -3 8 1
v -3 9 1
v -3 11 1
v -3 12 1
v -2 8 1
v -2 9 1
v -2 11 1
v -2 12 1
v -1 5 1
v -1 6 1
v 0 5 1
v 0 6 1
v 1 8 1
v 1 9 1
v 2 8 1
v 2 9 1
v 4 10 1
v 4 11 1
v 5 10 1
v 5 11 1
v -3 10 -0
v -3 11 -0
v -2 10 -0
v -2 11 -0
v 0 4 -0
v 0 5 -0
v 1 4 -0
v 1 5 -0
v 4 11 -0
v 4 12 -0
v 5 11 -0
v 5 12 -0
v -2 11 -1
v -2 12 -1
v -1 5 -1
v -1 6 -1
v -1 11 -1
v -1 12 -1
v 0 5 -1
v 0 6 -1
v 0 12 -1
v 0 13 -1
v 1 11 -1
v 1 12 -1
v 1 13 -1
v 2 7 -1
v 2 8 -1
v 2 11 -1
v 2 12 -1
v 3 7 -1
v 3 8 -1
v -2 8 -2
v -2 9 -2
v -1 8 -2
v -1 9 -2
v 0 10 -2
v 0 11 -2
v 1 10 -2
v 1 11 -2
v 2 10 -2
v 2 11 -2
v 3 8 -2
v 3 9 -2
v 3 10 -2
v 3 11 -2
v 4 8 -2
v 4 9 -2
v -1 10 -3
v -1 11 -3
v 0 8 -3
v 0 9 -3
v 0 10 -3
v 0 11 -3
v 1 7 -3
v 1 8 -3
v 1 9 -3
v 1 10 -3
v 2 6 -3
v 2 7 -3
v 2 8 -3
v 2 9 -3
v 2 10 -3
v 3 6 -3
v 3 7 -3
v 1 6 -4
v 1 7 -4
v 2 6 -4
v 2 7 -4
v -1 10 4
v -1 11 4
v 0 10 4
v 0 11 4
v -2 10 3
v -2 11 3
v -1 10 3
v -1 11 3
v -2 9 2
v -2 10 2
v -1 8 2
v -1 9 2
v -1 10 2
v 0 8 2
v 0 9 2
v 0 10 2
v 1 9 2
v 1 10 2
v 2 6 2
v 2 7 2
v 2 9 2
v 2 10 2
v 3 6 2
v 3 7 2
v 3 9 2
v 3 10 2
v -2 7 1
v -2 8 1
v -2 11 1
v -2 12 1
v -1 7 1
v -1 8 1
v -1 11 1
v -1 12 1
v 2 7 1
v 2 8 1
v 3 7 1
v 3 8 1
v 3 9 1
v 3 10 1
v 4 9 1
v 4 10 1
v -3 11 -0
v -3 12 -0
v -2 11 -0
v -2 12 -0
v -1 5 -0
v -1 6 -0
v 0 5 -0
v 0 6 -0
v 1 8 -0
v 1 9 -0
v 2 8 -0
v 2 9 -0
v 4 10 -0
v 4 11 -0
v 5 10 -0
v 5 11 -0
v -3 8 -1
v -3 9 -1
v -3 10 -1
v -3 11 -1
v -2 8 -1
v -2 9 -1
v -2 10 -1
v -2 11 -1
v 0 4 -1
v 0 5 -1
v 1 4 -1
v 1 5 -1
v 4 11 -1
v 4 12 -1
v 5 11 -1
v 5 12 -1
v -2 11 -2
v -2 12 -2
v -1 5 -2
v -1 6 -2
v -1 11 -2
v -1 12 -2
v 0 5 -2
v 0 6 -2
v 0 12 -2
v 0 13 -2
v 1 11 -2
v 1 12 -2
v 1 13 -2
v 2 7 -2
v 2 8 -2
v 2 11 -2
v 2 12 -2
v 3 7 -2
v 3 8 -2
v -2 8 -3
v -2 9 -3
v -1 8 -3
v -1 9 -3
v 0 10 -3
v 0 11 -3
v 1 10 -3
v 1 11 -3
v 2 10 -3
v 2 11 -3
v 3 8 -3
v 3 9 -3
v 3 10 -3
v 3 11 -3
v 4 8 -3
v 4 9 -3
v -1 10 -4
v -1 11 -4
v 0 8 -4
v 0 9 -4
v 0 10 -4
v 0 11 -4
v 1 7 -4
v 1 8 -4
v 1 9 -4
v 1 10 -4
v 2 6 -4
v 2 7 -4
v 2 8 -4
v 2 9 -4
v 2 10 -4
v 3 6 -4
v 3 7 -4
v 1 6 -5
v 1 7 -5
v 2 6 -5
v 2 7 -5
v 0 4 -0
v 1 4 -0
v 0 4 -1
v 1 4 -1
v -1 5 1
v 0 5 1
v -1 5 -0
v 0 5 -0
v -1 5 -1
v 0 5 -1
v -1 5 -2
v 0 5 -2
v 2 6 3
v 3 6 3
v 2 6 2
v 3 6 2
v 2 6 -3
v 3 6 -3
v 1 6 -4
v 2 6 -4
v 3 6 -4
v 1 6 -5
v 2 6 -5
v -2 7 2
v -1 7 2
v 2 7 2
v 3 7 2
v -2 7 1
v -1 7 1
v 2 7 1
v 3 7 1
v 2 7 -1
v 3 7 -1
v 2 7 -2
v 3 7 -2
v 1 7 -3
v 2 7 -3
v 1 7 -4
v 2 7 -4
v -1 8 3
v 0 8 3
v -1 8 2
v 0 8 2
v -3 8 1
v -2 8 1
v 1 8 1
v 2 8 1
v 1 8 -0
v 2 8 -0
v -3 8 -1
v -2 8 -1
v -2 8 -2
v -1 8 -2
v 3 8 -2
v 4 8 -2
v -2 8 -3
v -1 8 -3
v 0 8 -3
v 1 8 -3
v 3 8 -3
v 4 8 -3
v 0 8 -4
v 1 8 -4
v -2 9 3
v -1 9 3
v 0 9 3
v 1 9 3
v 2 9 3
v 3 9 3
v -2 9 2
v -1 9 2
v 0 9 2
v 1 9 2
v 2 9 2
v 3 9 2
v 4 9 2
v 3 9 1
v 4 9 1
v 1 9 -3
v 2 9 -3
v 1 9 -4
v 2 9 -4
v -1 10 5
v 0 10 5
v -2 10 4
v -1 10 4
v 0 10 4
v -2 10 3
v -1 10 3
v 4 10 1
v 5 10 1
v -3 10 -0
v -2 10 -0
v 4 10 -0
v 5 10 -0
v -3 10 -1
v -2 10 -1
v 0 10 -2
v 1 10 -2
v 2 10 -2
v 3 10 -2
v -1 10 -3
v 0 10 -3
v 1 10 -3
v 2 10 -3
v 3 10 -3
v -1 10 -4
v 0 10 -4
v -2 11 2
v -1 11 2
v -3 11 1
v -2 11 1
v -1 11 1
v -3 11 -0
v -2 11 -0
v 4 11 -0
v 5 11 -0
v -2 11 -1
v -1 11 -1
v 1 11 -1
v 2 11 -1
v 4 11 -1
v 5 11 -1
v -2 11 -2
v -1 11 -2
v 1 11 -2
v 2 11 -2
v 0 12 -1
v 1 12 -1
v 0 12 -2
v 1 12 -2
v 0 5 -0
v 1 5 -0
v 0 5 -1
v 1 5 -1
v -1 6 1
v 0 6 1
v -1 6 -0
v 0 6 -0
v -1 6 -1
v 0 6 -1
v -1 6 -2
v 0 6 -2
v 2 7 3
v 3 7 3
v 2 7 2
v 3 7 2
v 2 7 -3
v 3 7 -3
v 1 7 -4
v 2 7 -4
v 3 7 -4
v 1 7 -5
v 2 7 -5
v -2 8 2
v -1 8 2
v 2 8 2
v 3 8 2
v -2 8 1
v -1 8 1
v 2 8 1
v 3 8 1
v 2 8 -1
v 3 8 -1
v 2 8 -2
v 3 8 -2
v 1 8 -3
v 2 8 -3
v 1 8 -4
v 2 8 -4
v -1 9 3
v 0 9 3
v -1 9 2
v 0 9 2
v -3 9 1
v -2 9 1
v 1 9 1
v 2 9 1
v 1 9 -0
v 2 9 -0
v -3 9 -1
v -2 9 -1
v -2 9 -2
v -1 9 -2
v 3 9 -2
v 4 9 -2
v -2 9 -3
v -1 9 -3
v 0 9 -3
v 1 9 -3
v 3 9 -3
v 4 9 -3
v 0 9 -4
v 1 9 -4
v -2 10 3
v -1 10 3
v 0 10 3
v 1 10 3
v 2 10 3
v 3 10 3
v -2 10 2
v -1 10 2
v 0 10 2
v 1 10 2
v 2 10 2
v 3 10 2
v 4 10 2
v 3 10 1
v 4 10 1
v 1 10 -3
v 2 10 -3
v 1 10 -4
v 2 10 -4
v -1 11 5
v 0 11 5
v -2 11 4
v -1 11 4
v 0 11 4
v -2 11 3
v -1 11 3
v 4 11 1
v 5 11 1
v -3 11 -0
v -2 11 -0
v 4 11 -0
v 5 11 -0
v -3 11 -1
v -2 11 -1
v 0 11 -2
v 1 11 -2
v 2 11 -2
v 3 11 -2
v -1 11 -3
v 0 11 -3
v 1 11 -3
v 2 11 -3
v 3 11 -3
v -1 11 -4
v 0 11 -4
v -2 12 2
v -1 12 2
v -3 12 1
v -2 12 1
v -1 12 1
v -3 12 -0
v -2 12 -0
v 4 12 -0
v 5 12 -0
v -2 12 -1
v -1 12 -1
v 1 12 -1
v 2 12 -1
v 4 12 -1
v 5 12 -1
v -2 12 -2
v -1 12 -2
v 1 12 -2
v 2 12 -2
v 0 13 -1
v 1 13 -1
v 0 13 -2
v 1 13 -2

# faces
f 3/1/1 2/1/1 1/1/1
f 4/1/1 2/1/1 3/1/1
f 8/1/1 6/1/1 5/1/1
f 9/1/1 6/1/1 8/1/1
f 10/1/1 8/1/1 7/1/1
f 11/1/1 8/1/1 10/1/1
f 14/1/1 13/1/1 12/1/1
f 15/1/1 13/1/1 14/1/1
f 20/4/1 17/4/1 16/4/1
f 21/4/1 17/4/1 20/4/1
f 23/5/1 19/5/1 18/5/1
f 24/5/1 19/5/1 23/5/1
f 25/5/1 23/5/1 22/5/1
f 26/5/1 23/5/1 25/5/1
f 31/1/1 28/1/1 27/1/1
f 32/1/1 28/1/1 31/1/1
f 33/4/1 30/4/1 29/4/1
f 34/4/1 30/4/1 33/4/1
f 39/5/1 36/5/1 35/5/1
f 40/5/1 36/5/1 39/5/1
f 41/5/1 38/5/1 37/5/1
f 42/5/1 38/5/1 41/5/1
f 45/4/1 44/4/1 43/4/1
f 46/4/1 44/4/1 45/4/1
f 51/5/1 48/5/1 47/5/1
f 52/5/1 48/5/1 51/5/1
f 53/1/1 50/1/1 49/1/1
f 54/1/1 50/1/1 53/1/1
f 57/5/1 56/5/1 55/5/1
f 58/5/1 56/5/1 57/5/1
f 63/4/1 60/4/1 59/4/1
f 64/4/1 60/4/1 63/4/1
f 65/5/1 62/5/1 61/5/1
f 66/5/1 62/5/1 65/5/1
f 69/4/1 68/4/1 67/4/1
f 70/4/1 68/4/1 69/4/1
f 73/4/1 72/4/1 71/4/1
f 74/4/1 72/4/1 73/4/1
f 78/3/1 76/3/1 75/3/1
f 79/3/1 76/3/1 78/3/1
f 82/3/1 78/3/1 77/3/1
f 83/3/1 78/3/1 82/3/1
f 84/5/1 81/5/1 80/5/1
f 85/5/1 81/5/1 84/5/1
f 88/1/1 87/1/1 86/1/1
f 89/1/1 87/1/1 88/1/1
f 92/1/1 91/1/1 90/1/1
f 93/1/1 91/1/1 92/1/1
f 98/3/1 95/3/1 94/3/1
f 99/3/1 95/3/1 98/3/1
f 103/3/1 97/3/1 96/3/1
f 104/3/1 97/3/1 103/3/1
f 105/3/1 100/3/1 99/3/1
f 106/3/1 100/3/1 105/3/1
f 107/4/1 102/4/1 101/4/1
f 108/4/1 102/4/1 107/4/1
f 111/1/1 110/1/1 109/1/1
f 112/1/1 110/1/1 111/1/1
f 115/4/1 114/4/1 113/4/1
f 116/4/1 114/4/1 115/4/1
f 121/1/1 118/1/1 117/1/1
f 122/1/1 118/1/1 121/1/1
f 123/5/1 120/5/1 119/5/1
f 124/5/1 120/5/1 123/5/1
f 127/5/1 126/5/1 125/5/1
f 128/5/1 126/5/1 127/5/1
f 130/2/1 129/2/1 128/2/1
f 131/2/1 129/2/1 130/2/1
f 132/1/2 133/1/2 134/1/2
f 134/1/2 133/1/2 135/1/2
f 136/1/2 137/1/2 139/1/2
f 139/1/2 137/1/2 140/1/2
f 138/1/2 139/1/2 141/1/2
f 141/1/2 139/1/2 142/1/2
f 143/1/2 144/1/2 145/1/2
f 145/1/2 144/1/2 146/1/2
f 147/4/2 148/4/2 151/4/2
f 151/4/2 148/4/2 152/4/2
f 149/5/2 150/5/2 154/5/2
f 154/5/2 150/5/2 155/5/2
f 153/5/2 154/5/2 156/5/2
f 156/5/2 154/5/2 157/5/2
f 158/1/2 159/1/2 162/1/2
f 162/1/2 159/1/2 163/1/2
f 160/4/2 161/4/2 164/4/2
f 164/4/2 161/4/2 165/4/2
f 166/5/2 167/5/2 170/5/2
f 170/5/2 167/5/2 171/5/2
f 168/5/2 169/5/2 172/5/2
f 172/5/2 169/5/2 173/5/2
f 174/4/2 175/4/2 176/4/2
f 176/4/2 175/4/2 177/4/2
f 178/5/2 179/5/2 182/5/2
f 182/5/2 179/5/2 183/5/2
f 180/1/2 181/1/2 184/1/2
f 184/1/2 181/1/2 185/1/2
f 186/5/2 187/5/2 188/5/2
f 188/5/2 187/5/2 189/5/2
f 190/4/2 191/4/2 194/4/2
f 194/4/2 191/4/2 195/4/2
f 192/5/2 193/5/2 196/5/2
f 196/5/2 193/5/2 197/5/2
f 198/4/2 199/4/2 200/4/2
f 200/4/2 199/4/2 201/4/2
f 202/4/2 203/4/2 204/4/2
f 204/4/2 203/4/2 205/4/2
f 206/3/2 207/3/2 209/3/2
f 209/3/2 207/3/2 210/3/2
f 208/3/2 209/3/2 213/3/2
f 213/3/2 209/3/2 214/3/2
f 211/5/2 212/5/2 215/5/2
f 215/5/2 212/5/2 216/5/2
f 217/1/2 218/1/2 219/1/2
f 219/1/2 218/1/2 220/1/2
f 221/1/2 222/1/2 223/1/2
f 223/1/2 222/1/2 224/1/2
f 225/3/2 226/3/2 229/3/2
f 229/3/2 226/3/2 230/3/2
f 227/3/2 228/3/2 234/3/2
f 234/3/2 228/3/2 235/3/2
f 230/3/2 231/3/2 236/3/2
f 236/3/2 231/3/2 237/3/2
f 232/4/2 233/4/2 238/4/2
f 238/4/2 233/4/2 239/4/2
f 240/1/2 241/1/2 242/1/2
f 242/1/2 241/1/2 243/1/2
f 244/4/2 245/4/2 246/4/2
f 246/4/2 245/4/2 247/4/2
f 248/1/2 249/1/2 252/1/2
f 252/1/2 249/1/2 253/1/2
f 250/5/2 251/5/2 254/5/2
f 254/5/2 251/5/2 255/5/2
f 256/5/2 257/5/2 258/5/2
f 258/5/2 257/5/2 259/5/2
f 259/2/2 260/2/2 261/2/2
f 261/2/2 260/2/2 262/2/2
f 265/5/3 264/5/3 263/5/3
f 266/5/3 264/5/3 265/5/3
f 269/5/3 268/5/3 267/5/3
f 270/5/3 268/5/3 269/5/3
f 274/5/3 272/5/3 271/5/3
f 275/5/3 272/5/3 274/5/3
f 276/4/3 274/4/3 273/4/3
f 277/4/3 274/4/3 276/4/3
f 279/5/3 278/5/3 277/5/3
f 280/5/3 278/5/3 279/5/3
f 285/3/3 282/3/3 281/3/3
f 286/3/3 282/3/3 285/3/3
f 287/1/3 284/1/3 283/1/3
f 288/1/3 284/1/3 287/1/3
f 293/1/3 290/1/3 289/1/3
f 294/1/3 290/1/3 293/1/3
f 295/1/3 292/1/3 291/1/3
f 296/1/3 292/1/3 295/1/3
f 299/3/3 298/3/3 297/3/3
f 300/3/3 298/3/3 299/3/3
f 303/5/3 302/5/3 301/5/3
f 304/5/3 302/5/3 303/5/3
f 309/1/3 306/1/3 305/1/3
f 310/1/3 306/1/3 309/1/3
f 311/1/3 308/1/3 307/1/3
f 312/1/3 308/1/3 311/1/3
f 315/5/3 314/5/3 313/5/3
f 316/5/3 314/5/3 315/5/3
f 319/5/3 318/5/3 317/5/3
f 320/5/3 318/5/3 319/5/3
f 323/5/3 322/5/3 321/5/3
f 324/5/3 322/5/3 323/5/3
f 327/1/3 326/1/3 325/1/3
f 328/1/3 326/1/3 327/1/3
f 331/5/3 330/5/3 329/5/3
f 332/5/3 330/5/3 331/5/3
f 335/2/3 334/2/3 333/2/3
f 336/2/3 334/2/3 335/2/3
f 341/4/3 338/4/3 337/4/3
f 342/4/3 338/4/3 341/4/3
f 343/5/3 340/5/3 339/5/3
f 344/5/3 340/5/3 343/5/3
f 348/4/3 346/4/3 345/4/3
f 349/4/3 346/4/3 348/4/3
f 352/1/3 348/1/3 347/1/3
f 353/1/3 348/1/3 352/1/3
f 354/4/3 351/4/3 350/4/3
f 355/4/3 351/4/3 354/4/3
f 358/4/3 357/4/3 356/4/3
f 359/4/3 357/4/3 358/4/3
f 362/4/3 361/4/3 360/4/3
f 363/4/3 361/4/3 362/4/3
f 368/4/3 365/4/3 364/4/3
f 369/4/3 365/4/3 368/4/3
f 370/1/3 367/1/3 366/1/3
f 371/1/3 367/1/3 370/1/3
f 376/1/3 373/1/3 372/1/3
f 377/1/3 373/1/3 376/1/3
f 379/4/3 375/4/3 374/4/3
f 380/4/3 375/4/3 379/4/3
f 383/3/3 379/3/3 378/3/3
f 384/3/3 379/3/3 383/3/3
f 385/1/3 381/1/3 380/1/3
f 386/1/3 381/1/3 385/1/3
f 387/3/3 383/3/3 382/3/3
f 388/3/3 383/3/3 387/3/3
f 391/3/3 390/3/3 389/3/3
f 392/3/3 390/3/3 391/3/3
f 393/5/4 394/5/4 395/5/4
f 395/5/4 394/5/4 396/5/4
f 397/5/4 398/5/4 399/5/4
f 399/5/4 398/5/4 400/5/4
f 401/5/4 402/5/4 404/5/4
f 404/5/4 402/5/4 405/5/4
f 403/4/4 404/4/4 406/4/4
f 406/4/4 404/4/4 407/4/4
f 407/5/4 408/5/4 409/5/4
f 409/5/4 408/5/4 410/5/4
f 411/3/4 412/3/4 415/3/4
f 415/3/4 412/3/4 416/3/4
f 413/1/4 414/1/4 417/1/4
f 417/1/4 414/1/4 418/1/4
f 419/1/4 420/1/4 423/1/4
f 423/1/4 420/1/4 424/1/4
f 421/1/4 422/1/4 425/1/4
f 425/1/4 422/1/4 426/1/4
f 427/3/4 428/3/4 429/3/4
f 429/3/4 428/3/4 430/3/4
f 431/5/4 432/5/4 433/5/4
f 433/5/4 432/5/4 434/5/4
f 435/1/4 436/1/4 437/1/4
f 437/1/4 436/1/4 438/1/4
f 439/5/4 440/5/4 441/5/4
f 441/5/4 440/5/4 442/5/4
f 443/5/4 444/5/4 445/5/4
f 445/5/4 444/5/4 446/5/4
f 447/5/4 448/5/4 449/5/4
f 449/5/4 448/5/4 450/5/4
f 451/1/4 452/1/4 455/1/4
f 455/1/4 452/1/4 456/1/4
f 453/1/4 454/1/4 457/1/4
f 457/1/4 454/1/4 458/1/4
f 459/5/4 460/5/4 461/5/4
f 461/5/4 460/5/4 462/5/4
f 463/2/4 464/2/4 465/2/4
f 465/2/4 464/2/4 466/2/4
f 467/4/4 468/4/4 471/4/4
f 471/4/4 468/4/4 472/4/4
f 469/5/4 470/5/4 473/5/4
f 473/5/4 470/5/4 474/5/4
f 475/4/4 476/4/4 478/4/4
f 478/4/4 476/4/4 479/4/4
f 477/1/4 478/1/4 482/1/4
f 482/1/4 478/1/4 483/1/4
f 480/4/4 481/4/4 484/4/4
f 484/4/4 481/4/4 485/4/4
f 486/4/4 487/4/4 488/4/4
f 488/4/4 487/4/4 489/4/4
f 490/4/4 491/4/4 492/4/4
f 492/4/4 491/4/4 493/4/4
f 494/4/4 495/4/4 498/4/4
f 498/4/4 495/4/4 499/4/4
f 496/1/4 497/1/4 500/1/4
f 500/1/4 497/1/4 501/1/4
f 502/1/4 503/1/4 506/1/4
f 506/1/4 503/1/4 507/1/4
f 504/4/4 505/4/4 509/4/4
f 509/4/4 505/4/4 510/4/4
f 508/3/4 509/3/4 513/3/4
f 513/3/4 509/3/4 514/3/4
f 510/1/4 511/1/4 515/1/4
f 515/1/4 511/1/4 516/1/4
f 512/3/4 513/3/4 517/3/4
f 517/3/4 513/3/4 518/3/4
f 519/3/4 520/3/4 521/3/4
f 521/3/4 520/3/4 522/3/4
f 525/5/5 524/5/5 523/5/5
f 526/5/5 524/5/5 525/5/5
f 529/5/5 528/5/5 527/5/5
f 530/5/5 528/5/5 529/5/5
f 533/5/5 532/5/5 531/5/5
f 534/5/5 532/5/5 533/5/5
f 537/3/5 536/3/5 535/3/5
f 538/3/5 536/3/5 537/3/5
f 542/3/5 540/3/5 539/3/5
f 543/3/5 540/3/5 542/3/5
f 544/3/5 542/3/5 541/3/5
f 545/3/5 542/3/5 544/3/5
f 550/1/5 547/1/5 546/1/5
f 551/1/5 547/1/5 550/1/5
f 552/3/5 549/3/5 548/3/5
f 553/3/5 549/3/5 552/3/5
f 556/4/5 555/4/5 554/4/5
f 557/4/5 555/4/5 556/4/5
f 560/3/5 559/3/5 558/3/5
f 561/3/5 559/3/5 560/3/5
f 564/4/5 563/4/5 562/4/5
f 565/4/5 563/4/5 564/4/5
f 570/5/5 569/5/5 568/5/5
f 571/5/5 569/5/5 570/5/5
f 572/1/5 567/1/5 566/1/5
f 573/1/5 567/1/5 572/1/5
f 578/4/5 575/4/5 574/4/5
f 579/4/5 575/4/5 578/4/5
f 582/1/5 577/1/5 576/1/5
f 583/1/5 577/1/5 582/1/5
f 584/4/5 581/4/5 580/4/5
f 585/4/5 581/4/5 584/4/5
f 592/5/5 587/5/5 586/5/5
f 593/5/5 587/5/5 592/5/5
f 594/5/5 589/5/5 588/5/5
f 595/5/5 589/5/5 594/5/5
f 596/1/5 591/1/5 590/1/5
f 597/1/5 591/1/5 596/1/5
f 599/5/5 598/5/5 597/5/5
f 600/5/5 598/5/5 599/5/5
f 603/1/5 602/1/5 601/1/5
f 604/1/5 602/1/5 603/1/5
f 608/5/5 606/5/5 605/5/5
f 609/5/5 606/5/5 608/5/5
f 610/5/5 608/5/5 607/5/5
f 611/5/5 608/5/5 610/5/5
f 616/5/5 613/5/5 612/5/5
f 617/5/5 613/5/5 616/5/5
f 618/1/5 615/1/5 614/1/5
f 619/1/5 615/1/5 618/1/5
f 625/4/5 621/4/5 620/4/5
f 626/4/5 621/4/5 625/4/5
f 627/4/5 623/4/5 622/4/5
f 628/4/5 623/4/5 627/4/5
f 629/1/5 625/1/5 624/1/5
f 630/1/5 625/1/5 629/1/5
f 634/1/5 632/1/5 631/1/5
f 635/1/5 632/1/5 634/1/5
f 636/1/5 634/1/5 633/1/5
f 637/1/5 634/1/5 636/1/5
f 644/2/5 639/2/5 638/2/5
f 645/2/5 639/2/5 644/2/5
f 646/4/5 641/4/5 640/4/5
f 647/4/5 641/4/5 646/4/5
f 648/1/5 643/1/5 642/1/5
f 649/1/5 643/1/5 648/1/5
f 652/4/5 651/4/5 650/4/5
f 653/4/5 651/4/5 652/4/5
f 654/5/6 655/5/6 656/5/6
f 656/5/6 655/5/6 657/5/6
f 658/5/6 659/5/6 660/5/6
f 660/5/6 659/5/6 661/5/6
f 662/5/6 663/5/6 664/5/6
f 664/5/6 663/5/6 665/5/6
f 666/3/6 667/3/6 668/3/6
f 668/3/6 667/3/6 669/3/6
f 670/3/6 671/3/6 673/3/6
f 673/3/6 671/3/6 674/3/6
f 672/3/6 673/3/6 675/3/6
f 675/3/6 673/3/6 676/3/6
f 677/1/6 678/1/6 681/1/6
f 681/1/6 678/1/6 682/1/6
f 679/3/6 680/3/6 683/3/6
f 683/3/6 680/3/6 684/3/6
f 685/4/6 686/4/6 687/4/6
f 687/4/6 686/4/6 688/4/6
f 689/3/6 690/3/6 691/3/6
f 691/3/6 690/3/6 692/3/6
f 693/4/6 694/4/6 695/4/6
f 695/4/6 694/4/6 696/4/6
f 699/5/6 700/5/6 701/5/6
f 701/5/6 700/5/6 702/5/6
f 697/1/6 698/1/6 703/1/6
f 703/1/6 698/1/6 704/1/6
f 705/4/6 706/4/6 709/4/6
f 709/4/6 706/4/6 710/4/6
f 707/1/6 708/1/6 713/1/6
f 713/1/6 708/1/6 714/1/6
f 711/4/6 712/4/6 715/4/6
f 715/4/6 712/4/6 716/4/6
f 717/5/6 718/5/6 723/5/6
f 723/5/6 718/5/6 724/5/6
f 719/5/6 720/5/6 725/5/6
f 725/5/6 720/5/6 726/5/6
f 721/1/6 722/1/6 727/1/6
f 727/1/6 722/1/6 728/1/6
f 728/5/6 729/5/6 730/5/6
f 730/5/6 729/5/6 731/5/6
f 732/1/6 733/1/6 734/1/6
f 734/1/6 733/1/6 735/1/6
f 736/5/6 737/5/6 739/5/6
f 739/5/6 737/5/6 740/5/6
f 738/5/6 739/5/6 741/5/6
f 741/5/6 739/5/6 742/5/6
f 743/5/6 744/5/6 747/5/6
f 747/5/6 744/5/6 748/5/6
f 745/1/6 746/1/6 749/1/6
f 749/1/6 746/1/6 750/1/6
f 751/4/6 752/4/6 756/4/6
f 756/4/6 752/4/6 757/4/6
f 753/4/6 754/4/6 758/4/6
f 758/4/6 754/4/6 759/4/6
f 755/1/6 756/1/6 760/1/6
f 760/1/6 756/1/6 761/1/6
f 762/1/6 763/1/6 765/1/6
f 765/1/6 763/1/6 766/1/6
f 764/1/6 765/1/6 767/1/6
f 767/1/6 765/1/6 768/1/6
f 769/2/6 770/2/6 775/2/6
f 775/2/6 770/2/6 776/2/6
f 771/4/6 772/4/6 777/4/6
f 777/4/6 772/4/6 778/4/6
f 773/1/6 774/1/6 779/1/6
f 779/1/6 774/1/6 780/1/6
f 781/4/6 782/4/6 783/4/6
f 783/4/6 782/4/6 784/4/6
